<?xml version="1.0" standalone="no"?>
<!DOCTYPE svg PUBLIC "-//W3C//DTD SVG 20010904//EN"
 "http://www.w3.org/TR/2001/REC-SVG-20010904/DTD/svg10.dtd">
<svg version="1.0" xmlns="http://www.w3.org/2000/svg"
 width="512.000000pt" height="512.000000pt" viewBox="0 0 512.000000 512.000000"
 preserveAspectRatio="xMidYMid meet">
<metadata>
Created by potrace 1.11, written by Peter Selinger 2001-2013
</metadata>
<g transform="translate(0.000000,512.000000) scale(0.100000,-0.100000)"
fill="#000000" stroke="none">
<path d="M950 2555 l0 -1065 145 0 145 0 0 414 0 413 323 6 c265 5 338 9 412
25 221 48 373 154 448 314 48 101 62 173 61 313 -1 118 -3 138 -30 215 -66
188 -199 318 -394 384 -126 42 -181 46 -657 46 l-453 0 0 -1065z m933 820
c220 -46 350 -243 318 -479 -19 -133 -93 -240 -201 -289 -96 -43 -131 -47
-452 -47 l-308 0 0 415 0 415 288 0 c211 0 305 -4 355 -15z"/>
<path d="M2850 2555 l0 -1065 140 0 140 0 0 470 0 470 445 0 445 0 0 115 0
115 -445 0 -445 0 0 365 0 365 520 0 520 0 0 115 0 115 -660 0 -660 0 0 -1065z"/>
</g>
</svg>
